<svg width="24" height="24" viewBox="0 0 24 24" fill="none" xmlns="http://www.w3.org/2000/svg">
<path d="M2.09457 11.0865C2.08258 10.9484 2.09942 10.8094 2.14403 10.6782C2.18863 10.5469 2.26003 10.4264 2.35368 10.3243C2.44733 10.2221 2.5612 10.1405 2.68805 10.0847C2.8149 10.0289 2.95198 10 3.09057 10H6.00007C6.26529 10 6.51964 10.1054 6.70718 10.2929C6.89471 10.4804 7.00007 10.7348 7.00007 11V20.5C7.00007 20.7652 6.89471 21.0196 6.70718 21.2071C6.51964 21.3946 6.26529 21.5 6.00007 21.5H3.91707C3.66678 21.5001 3.42557 21.4063 3.24108 21.2371C3.05658 21.068 2.94222 20.8358 2.92057 20.5865L2.09457 11.0865ZM9.00007 10.6875C9.00007 10.2695 9.26007 9.8955 9.63757 9.7175C10.4621 9.3285 11.8666 8.547 12.5001 7.4905C13.3166 6.1285 13.4706 3.668 13.4956 3.1045C13.4991 3.0255 13.4971 2.9465 13.5076 2.8685C13.6431 1.892 15.5276 3.0325 16.2501 4.2385C16.6426 4.8925 16.6926 5.752 16.6516 6.4235C16.6071 7.1415 16.3966 7.835 16.1901 8.524L15.7501 9.9925H21.1786C21.3331 9.99249 21.4855 10.0283 21.6238 10.0971C21.7622 10.1658 21.8827 10.2658 21.976 10.3889C22.0692 10.5121 22.1326 10.6553 22.1613 10.8071C22.1899 10.9589 22.183 11.1153 22.1411 11.264L19.4561 20.772C19.3968 20.9817 19.2706 21.1663 19.0968 21.2977C18.923 21.4291 18.711 21.5002 18.4931 21.5H10.0001C9.73485 21.5 9.4805 21.3946 9.29296 21.2071C9.10543 21.0196 9.00007 20.7652 9.00007 20.5V10.6875Z" fill="white" stroke="white" stroke-linecap="round" stroke-linejoin="round"/>
</svg>
