<svg width="24" height="24" viewBox="0 0 24 24" fill="none" xmlns="http://www.w3.org/2000/svg">
<path d="M8.24325 7.34L1.86325 8.265L1.75025 8.288C1.57919 8.33341 1.42325 8.42341 1.29835 8.5488C1.17344 8.67419 1.08406 8.83049 1.03932 9.00173C0.994575 9.17296 0.996081 9.35301 1.04368 9.52347C1.09128 9.69394 1.18327 9.84871 1.31025 9.972L5.93225 14.471L4.84225 20.826L4.82925 20.936C4.81878 21.1129 4.85552 21.2894 4.9357 21.4475C5.01589 21.6056 5.13664 21.7395 5.28559 21.8355C5.43454 21.9316 5.60634 21.9863 5.7834 21.9941C5.96046 22.0019 6.13642 21.9625 6.29325 21.88L11.9993 18.88L17.6923 21.88L17.7923 21.926C17.9573 21.991 18.1367 22.0109 18.312 21.9838C18.4873 21.9566 18.6522 21.8832 18.7898 21.7713C18.9275 21.6593 19.0328 21.5127 19.0951 21.3466C19.1574 21.1805 19.1743 21.0008 19.1443 20.826L18.0533 14.471L22.6773 9.971L22.7553 9.886C22.8667 9.74877 22.9397 9.58445 22.967 9.40979C22.9942 9.23514 22.9747 9.05638 22.9103 8.89173C22.846 8.72708 22.7392 8.58243 22.6007 8.47251C22.4623 8.36259 22.2972 8.29134 22.1223 8.266L15.7423 7.34L12.8903 1.56C12.8077 1.39253 12.68 1.25151 12.5214 1.1529C12.3629 1.05429 12.1799 1.00203 11.9933 1.00203C11.8066 1.00203 11.6236 1.05429 11.4651 1.1529C11.3065 1.25151 11.1788 1.39253 11.0963 1.56L8.24325 7.34Z" fill="white"/>
</svg>
