<svg width="24" height="24" viewBox="0 0 24 24" fill="none" xmlns="http://www.w3.org/2000/svg">
<path d="M11.9932 1.50203C12.0865 1.50203 12.1785 1.52792 12.2578 1.57722C12.337 1.62652 12.4002 1.69767 12.4414 1.78133L15.2939 7.5616L15.4102 7.79695L15.6709 7.83504L22.0508 8.76082C22.1382 8.77351 22.2209 8.80941 22.29 8.86433C22.359 8.91917 22.4122 8.99127 22.4443 9.07332C22.4765 9.15564 22.4863 9.24576 22.4727 9.33308C22.4593 9.41802 22.4233 9.49711 22.3701 9.56453L22.3213 9.61824L17.7041 14.1124L17.5156 14.296L17.5605 14.5557L18.6514 20.9102V20.9112C18.6663 20.9985 18.658 21.0881 18.627 21.171C18.5958 21.254 18.5434 21.3279 18.4746 21.3839C18.4058 21.4398 18.323 21.4757 18.2354 21.4893C18.1497 21.5026 18.0624 21.4928 17.9814 21.462L17.918 21.4337L12.2324 18.4376L12 18.3145L11.7666 18.4376L6.06055 21.4376C5.98219 21.4788 5.89413 21.4981 5.80566 21.4942C5.71714 21.4903 5.63112 21.4631 5.55664 21.4151C5.48232 21.3672 5.42193 21.3006 5.38184 21.2218C5.34327 21.1457 5.32482 21.0607 5.32812 20.9757L5.33887 20.8848L6.4248 14.5557L6.46973 14.296L6.28125 14.1124L1.65918 9.61336H1.6582C1.59478 9.55173 1.54917 9.47392 1.52539 9.38875C1.50164 9.30357 1.50108 9.21356 1.52344 9.12801C1.54582 9.04247 1.58995 8.96409 1.65234 8.90144C1.71319 8.84036 1.78913 8.79675 1.87207 8.77351L1.9502 8.75691L8.31543 7.83504L8.5752 7.79695L8.69141 7.5616L11.5449 1.78133C11.5862 1.69759 11.6502 1.62653 11.7295 1.57722C11.8086 1.52808 11.9 1.50205 11.9932 1.50203Z" stroke="white"/>
</svg>
