<svg width="24" height="24" viewBox="0 0 24 24" fill="none" xmlns="http://www.w3.org/2000/svg">
<path d="M9.35449 2.87808C10.7695 2.46781 12.2608 2.39225 13.71 2.65738C15.1591 2.92255 16.5271 3.52079 17.7051 4.40543C18.8831 5.29015 19.8394 6.43722 20.498 7.75504C21.1567 9.07299 21.4996 10.5268 21.5 12.0002C21.5002 13.7007 21.0438 15.3701 20.1787 16.8341C19.3135 18.2983 18.0709 19.5033 16.5811 20.3234C15.0913 21.1435 13.4088 21.5493 11.709 21.4972C10.0891 21.4475 8.51043 20.9833 7.12207 20.1525L3.1582 21.4748C2.97861 21.5346 2.78036 21.4875 2.64648 21.3537C2.51269 21.2198 2.46559 21.0215 2.52539 20.8419L3.84668 16.8771C3.13283 15.6832 2.68933 14.346 2.54883 12.9601C2.40026 11.4943 2.59421 10.0136 3.11621 8.63589C3.63823 7.25823 4.47411 6.02094 5.55664 5.02164C6.63921 4.02236 7.93952 3.28841 9.35449 2.87808ZM8 14.3C7.61347 14.3 7.29981 14.6136 7.2998 15.0002C7.29989 15.3866 7.61353 15.7003 8 15.7003H12C12.3865 15.7003 12.7001 15.3867 12.7002 15.0002C12.7002 14.6136 12.3866 14.3 12 14.3H8ZM8 11.3C7.61347 11.3 7.29981 11.6136 7.2998 12.0002C7.29989 12.3866 7.61353 12.7003 8 12.7003H16C16.3865 12.7003 16.7001 12.3867 16.7002 12.0002C16.7002 11.6136 16.3866 11.3 16 11.3H8ZM8 8.29996C7.61347 8.30004 7.2998 8.61361 7.2998 9.00015C7.29989 9.38662 7.61353 9.70026 8 9.70035H16C16.3865 9.70035 16.7001 9.38668 16.7002 9.00015C16.7002 8.61355 16.3866 8.29996 16 8.29996H8Z" fill="white"/>
</svg>
