<svg viewBox="0 0 24 24" fill="none" xmlns="http://www.w3.org/2000/svg">
<path d="M17.7473 10.4201V3.82006C17.7473 3.46998 17.596 3.13423 17.3265 2.88668C17.0571 2.63913 16.6916 2.50006 16.3106 2.50006H7.69019C7.30914 2.50006 6.9437 2.63913 6.67426 2.88668C6.40482 3.13423 6.25345 3.46998 6.25345 3.82006V10.4201M17.7473 10.4201C17.7473 11.8204 17.1419 13.1634 16.0641 14.1536C14.9863 15.1438 13.5246 15.7001 12.0004 15.7001M17.7473 10.4201H18.7269C19.489 10.4201 20.2199 10.1419 20.7588 9.64682C21.2977 9.15173 21.6004 8.48023 21.6004 7.78006V6.46006C21.6004 6.10997 21.6004 5.50306 21.349 5.27206C21.1472 5.14006 20.5447 5.14006 20.1637 5.14006H17.7473V10.4201ZM12.0004 15.7001C10.4762 15.7001 9.01445 15.1438 7.93669 14.1536C6.85893 13.1634 6.25345 11.8204 6.25345 10.4201M12.0004 15.7001V19.6601M6.25345 10.4201H5.27386C4.51177 10.4201 3.78089 10.1419 3.24201 9.64682C2.70313 9.15173 2.40039 8.48023 2.40039 7.78006V6.46006C2.40039 6.10997 2.40039 5.50306 2.65181 5.27206C2.81673 5.14006 3.45608 5.14006 3.83713 5.14006H6.25345V10.4201ZM7.69019 19.6601H16.3106C16.6916 19.6601 17.0571 19.7991 17.3265 20.0467C17.596 20.2942 17.7473 20.63 17.7473 20.9801C17.7473 21.3301 17.596 21.6659 17.3265 21.9134C17.0571 22.161 16.6916 22.3001 16.3106 22.3001H7.69019C7.30914 22.3001 6.9437 22.161 6.67426 21.9134C6.40482 21.6659 6.25345 21.3301 6.25345 20.9801C6.25345 20.63 6.40482 20.2942 6.67426 20.0467C6.9437 19.7991 7.30914 19.6601 7.69019 19.6601Z" stroke="currentColor" stroke-linecap="round" stroke-linejoin="round"/>
</svg>
