<svg viewBox="0 0 24 24" fill="none" xmlns="http://www.w3.org/2000/svg">
<path d="M17.7473 9.92006V3.32006C17.7473 2.96998 17.596 2.63423 17.3265 2.38668C17.0571 2.13913 16.6916 2.00006 16.3106 2.00006H7.69019C7.30914 2.00006 6.9437 2.13913 6.67426 2.38668C6.40482 2.63423 6.25345 2.96998 6.25345 3.32006V9.92006M17.7473 9.92006C17.7473 11.3204 17.1419 12.6634 16.0641 13.6536C14.9863 14.6438 13.5246 15.2001 12.0004 15.2001M17.7473 9.92006H18.7269C19.489 9.92006 20.2199 9.64192 20.7588 9.14682C21.2977 8.65173 21.6004 7.98023 21.6004 7.28006V5.96006C21.6004 5.60997 21.6004 5.00306 21.349 4.77206C21.1472 4.64006 20.5447 4.64006 20.1637 4.64006H17.7473V9.92006ZM12.0004 15.2001C10.4762 15.2001 9.01445 14.6438 7.93669 13.6536C6.85893 12.6634 6.25345 11.3204 6.25345 9.92006M12.0004 15.2001V19.1601M6.25345 9.92006H5.27386C4.51177 9.92006 3.78089 9.64192 3.24201 9.14682C2.70313 8.65173 2.40039 7.98023 2.40039 7.28006V5.96006C2.40039 5.60997 2.40039 5.00306 2.65181 4.77206C2.81673 4.64006 3.45608 4.64006 3.83713 4.64006H6.25345V9.92006ZM7.69019 19.1601H16.3106C16.6916 19.1601 17.0571 19.2991 17.3265 19.5467C17.596 19.7942 17.7473 20.13 17.7473 20.4801C17.7473 20.8301 17.596 21.1659 17.3265 21.4134C17.0571 21.661 16.6916 21.8001 16.3106 21.8001H7.69019C7.30914 21.8001 6.9437 21.661 6.67426 21.4134C6.40482 21.1659 6.25345 20.8301 6.25345 20.4801C6.25345 20.13 6.40482 19.7942 6.67426 19.5467C6.9437 19.2991 7.30914 19.1601 7.69019 19.1601Z" stroke="currentColor" stroke-linecap="round" stroke-linejoin="round"/>
<path d="M7.68966 2H16.3101C16.6911 2 17.0566 2.13907 17.326 2.38662C17.5954 2.63417 17.7468 2.96991 17.7468 3.32V9.92C17.7468 11.3203 17.1413 12.6633 16.0636 13.6535C14.9858 14.6437 13.5241 15.2 11.9999 15.2C10.4757 15.2 9.01393 14.6437 7.93617 13.6535C6.85841 12.6633 6.25293 11.3203 6.25293 9.92V3.32C6.25293 2.96991 6.4043 2.63417 6.67374 2.38662C6.94318 2.13907 7.30862 2 7.68966 2Z" fill="white"/>
<path d="M17.7468 9.92V3.32C17.7468 2.96991 17.5954 2.63417 17.326 2.38662C17.0566 2.13907 16.6911 2 16.3101 2H7.68966C7.30862 2 6.94318 2.13907 6.67374 2.38662C6.4043 2.63417 6.25293 2.96991 6.25293 3.32V9.92M17.7468 9.92C17.7468 11.3203 17.1413 12.6633 16.0636 13.6535C14.9858 14.6437 13.5241 15.2 11.9999 15.2C10.4757 15.2 9.01393 14.6437 7.93617 13.6535C6.85841 12.6633 6.25293 11.3203 6.25293 9.92M17.7468 9.92V4.64M6.25293 9.92V4.64" stroke="white" stroke-linecap="round" stroke-linejoin="round"/>
</svg>
