<svg width="24" height="24" viewBox="0 0 24 24" fill="none" xmlns="http://www.w3.org/2000/svg">
<path d="M3 9.35C3 7.6526 3 6.8048 3.5274 6.2774C4.0548 5.75 4.9026 5.75 6.6 5.75H17.4C19.0974 5.75 19.9452 5.75 20.4726 6.2774C21 6.8048 21 7.6526 21 9.35C21 9.7739 21 9.9863 20.8686 10.1186C20.7363 10.25 20.523 10.25 20.1 10.25H3.9C3.4761 10.25 3.2637 10.25 3.1314 10.1186C3 9.9863 3 9.773 3 9.35ZM3 17.45C3 19.1474 3 19.9952 3.5274 20.5226C4.0548 21.05 4.9026 21.05 6.6 21.05H17.4C19.0974 21.05 19.9452 21.05 20.4726 20.5226C21 19.9952 21 19.1474 21 17.45V12.95C21 12.5261 21 12.3137 20.8686 12.1814C20.7363 12.05 20.523 12.05 20.1 12.05H3.9C3.4761 12.05 3.2637 12.05 3.1314 12.1814C3 12.3137 3 12.527 3 12.95V17.45Z" fill="white"/>
<path d="M7.5 3.95001V6.65001M16.5 3.95001V6.65001" stroke="white" stroke-width="2" stroke-linecap="round"/>
</svg>
