<svg viewBox="0 0 24 24" fill="none" xmlns="http://www.w3.org/2000/svg">
<path d="M11.6723 20.8664C11.8159 20.8664 11.9631 20.8337 12.114 20.7684C12.265 20.7031 12.3869 20.6233 12.48 20.529L21.0471 11.8473C21.3233 11.5675 21.5365 11.2817 21.6867 10.99C21.8361 10.6968 21.9109 10.3753 21.9109 10.0257C21.9109 9.67164 21.8361 9.32795 21.6867 8.99465C21.5365 8.66061 21.3233 8.35627 21.0471 8.08161L16.9262 3.90613C16.6544 3.62628 16.3749 3.42103 16.0877 3.29039C15.8013 3.15974 15.4833 3.09442 15.1339 3.09442C14.7888 3.09442 14.4683 3.15974 14.1723 3.29039C13.8763 3.42103 13.5976 3.62591 13.336 3.90502L12.6547 4.59536C12.5011 4.75098 12.501 5.0011 12.6543 5.15693L14.4108 6.94143C14.6291 7.15892 14.7921 7.40611 14.8998 7.68299C15.0068 7.95988 15.0602 8.24084 15.0602 8.52588C15.0602 9.10563 14.873 9.58516 14.4987 9.96448C14.1243 10.3438 13.6514 10.5331 13.08 10.5323C12.7979 10.5323 12.5228 10.4889 12.2547 10.4021C11.9866 10.3152 11.7452 10.163 11.5305 9.94555L9.71297 8.11067C9.55627 7.95248 9.30056 7.9527 9.14413 8.11116L4.6832 12.6301C4.57258 12.7429 4.48942 12.871 4.43375 13.0142C4.37807 13.1575 4.35023 13.3023 4.35023 13.4485C4.35023 13.7113 4.43338 13.9277 4.59968 14.0976C4.76525 14.2684 4.97771 14.3537 5.23705 14.3537C5.38064 14.3537 5.5279 14.3211 5.67882 14.2558C5.82973 14.1897 5.95171 14.1095 6.04475 14.0152L9.24251 10.7752C9.39913 10.6165 9.65528 10.6165 9.8119 10.7752L10.0282 10.9943C10.1818 11.15 10.1819 11.4002 10.0285 11.556L6.82828 14.8047C6.71692 14.9168 6.6334 15.0445 6.57773 15.1877C6.52278 15.3317 6.49531 15.4765 6.49531 15.622C6.49531 15.8706 6.58176 16.0826 6.75465 16.2578C6.92755 16.4329 7.13671 16.5209 7.38213 16.5217C7.52572 16.5217 7.67297 16.4886 7.82389 16.4226C7.97481 16.3565 8.09679 16.2767 8.18983 16.1832L11.6416 12.6918C11.7982 12.5334 12.054 12.5335 12.2106 12.6919L12.4267 12.9105C12.5805 13.0662 12.5807 13.3166 12.4271 13.4725L8.97336 16.9771C8.87592 17.0713 8.79606 17.1949 8.73379 17.3478C8.67079 17.5008 8.63929 17.65 8.63929 17.7955C8.63929 18.0434 8.7261 18.2549 8.89973 18.4301C9.07262 18.6068 9.28178 18.6951 9.52721 18.6951C9.6708 18.6951 9.81366 18.6669 9.95578 18.6105C10.0979 18.5541 10.2239 18.4695 10.3338 18.3566L13.7854 14.8645C13.9421 14.706 14.1981 14.7061 14.3546 14.8647L14.5708 15.0838C14.7246 15.2396 14.7246 15.49 14.5708 15.6457L11.1118 19.1505C11.0012 19.2634 10.9181 19.3988 10.8624 19.5569C10.8067 19.7151 10.7789 19.8594 10.7789 19.9901C10.7789 20.2529 10.8701 20.4648 11.0525 20.6259C11.2349 20.787 11.4415 20.8675 11.6723 20.8675M11.6657 21.981C11.1008 21.981 10.6173 21.7716 10.2151 21.353C9.91219 21.0371 9.73726 20.6656 9.69034 20.2385C9.66464 20.0046 9.48112 19.8071 9.24851 19.7713C8.81614 19.7048 8.44347 19.5265 8.13049 19.2363C7.80416 18.9331 7.61284 18.5359 7.55653 18.0445C7.53065 17.8187 7.35009 17.6344 7.12466 17.6052C6.63971 17.5423 6.24347 17.3534 5.93596 17.0383C5.63367 16.7286 5.45866 16.343 5.41095 15.8817C5.38716 15.6517 5.20479 15.4612 4.97586 15.4284C4.54926 15.3673 4.17991 15.2017 3.86781 14.9316C3.45681 14.5768 3.25132 14.0824 3.25132 13.4485C3.25132 13.1627 3.3059 12.8769 3.41506 12.5911C3.52421 12.3046 3.68539 12.053 3.89858 11.8362L9.14361 6.52807C9.30026 6.36953 9.55627 6.36961 9.71283 6.52824L12.2657 9.11491C12.3587 9.21363 12.4738 9.29492 12.6108 9.35875C12.7478 9.42259 12.902 9.45414 13.0734 9.4534C13.3086 9.4534 13.5163 9.37026 13.6965 9.20398C13.8767 9.03771 13.9672 8.82095 13.9679 8.55372C13.9679 8.38002 13.9364 8.22414 13.8734 8.08607C13.8104 7.94726 13.7305 7.83071 13.6338 7.73644L9.85358 3.90613C9.58105 3.62628 9.2979 3.42103 9.00412 3.29039C8.71035 3.15974 8.38873 3.09442 8.03928 3.09442C7.69422 3.09442 7.38066 3.15974 7.09861 3.29039C6.81729 3.42103 6.53853 3.62628 6.26234 3.90613L2.91725 7.30219C2.68135 7.53973 2.49087 7.82366 2.34581 8.15399C2.20076 8.48357 2.12383 8.82392 2.11504 9.17503C2.10772 9.42668 2.12896 9.6683 2.17878 9.8999C2.2074 10.033 2.24618 10.1616 2.29511 10.2858C2.3597 10.4498 2.33587 10.6404 2.21206 10.7658L1.94483 11.0366C1.76285 11.221 1.45616 11.1854 1.35378 10.9474C1.27608 10.7668 1.20969 10.5735 1.15459 10.3675C1.05056 9.97858 1.00258 9.58145 1.01063 9.17615C1.01943 8.66989 1.11943 8.18554 1.31064 7.72308C1.50185 7.26062 1.77584 6.84827 2.13262 6.48602L5.45683 3.1178C5.83999 2.73329 6.24549 2.4475 6.67333 2.26044C7.10117 2.07412 7.56382 1.98096 8.06126 1.98096C8.5587 1.98096 9.01731 2.07449 9.4371 2.26155C9.85761 2.44787 10.2576 2.73329 10.6371 3.1178L11.3086 3.799C11.4652 3.95778 11.7213 3.95793 11.878 3.79932L12.5514 3.1178C12.9346 2.73329 13.3364 2.4475 13.7569 2.26044C14.1774 2.07412 14.6364 1.98096 15.1339 1.98096C15.6313 1.98096 16.0939 2.07449 16.5218 2.26155C16.9489 2.44787 17.3518 2.73329 17.7306 3.1178L21.8251 7.26545C22.2039 7.64922 22.4962 8.08013 22.7021 8.55817C22.9079 9.03622 23.0105 9.52726 23.0098 10.0313C23.0098 10.5361 22.9072 11.0011 22.7021 11.4265C22.4969 11.8518 22.2046 12.2571 21.8251 12.6424L13.2569 21.3162C13.0291 21.5478 12.7807 21.7163 12.5119 21.8217C12.2437 21.9271 11.9617 21.9798 11.6657 21.9798" fill="currentColor"/>
</svg>
