<svg width="24" height="24" viewBox="0 0 24 24" fill="none" xmlns="http://www.w3.org/2000/svg">
<path d="M12.1118 21.9626C11.8009 21.9626 11.5405 21.8564 11.3305 21.644C11.1206 21.4315 11.0152 21.1689 11.0145 20.8561C11.0145 20.7271 11.0419 20.5932 11.0968 20.4545C11.1517 20.3158 11.234 20.1915 11.3437 20.0816L16.0345 15.3513C16.1442 15.2407 16.199 15.1068 16.199 14.9496C16.199 14.7925 16.1442 14.659 16.0345 14.5491C15.9247 14.4392 15.792 14.3883 15.6362 14.3964C15.4803 14.4045 15.3479 14.4646 15.2389 14.5768L10.5756 19.2794C10.4659 19.39 10.347 19.473 10.219 19.5283C10.091 19.5837 9.95383 19.6113 9.80752 19.6113C9.49664 19.6113 9.23622 19.5051 9.02628 19.2927C8.81634 19.0802 8.711 18.818 8.71027 18.5059C8.71027 18.3215 8.7377 18.1692 8.79256 18.049C8.84742 17.9287 8.92058 17.8229 9.01201 17.7314L13.7028 13C13.8125 12.8893 13.8674 12.7602 13.8674 12.6127C13.8674 12.4652 13.8125 12.3361 13.7028 12.2254C13.5931 12.1148 13.465 12.0595 13.3187 12.0595C13.1724 12.0595 13.0444 12.1148 12.9347 12.2254L8.24393 16.9281C8.13421 17.0387 8.01534 17.1217 7.88733 17.177C7.75931 17.2324 7.61301 17.26 7.44842 17.26C7.15582 17.26 6.89979 17.1494 6.68034 16.9281C6.46089 16.7068 6.35117 16.4486 6.35117 16.1535C6.35117 16.006 6.3786 15.8677 6.43346 15.7386C6.48832 15.6095 6.57062 15.4896 6.68034 15.379L11.3437 10.6763C11.4534 10.5657 11.5083 10.4318 11.5083 10.2747C11.5083 10.1176 11.4534 9.98404 11.3437 9.87413C11.234 9.76421 11.1059 9.70889 10.9596 9.70815C10.8133 9.70741 10.6853 9.76274 10.5756 9.87413L5.91226 14.6044C5.82083 14.6966 5.7111 14.7704 5.58309 14.8257C5.45507 14.881 5.29963 14.9087 5.11675 14.9087C4.80586 14.9087 4.54545 14.8025 4.33551 14.59C4.12556 14.3776 4.02023 14.115 4.0195 13.8022C4.0195 13.6547 4.04693 13.5164 4.10179 13.3873C4.15665 13.2582 4.23895 13.1383 4.34867 13.0277L9.72523 7.6058C9.92639 7.40294 10.178 7.31073 10.4801 7.32917C10.7823 7.34762 11.0335 7.45827 11.234 7.66112L14.5806 11.036C14.7818 11.2388 15.0195 11.4004 15.2938 11.5206C15.5681 11.6408 15.8424 11.7006 16.1167 11.6999C16.702 11.6999 17.214 11.4926 17.6529 11.078C18.0918 10.6634 18.3113 10.133 18.3113 9.48685C18.3113 9.22867 18.2655 8.96126 18.1741 8.68464C18.0827 8.40801 17.9181 8.14983 17.6803 7.91009L13.9222 4.12032C13.7211 3.91746 13.5883 3.69616 13.5239 3.45642C13.4596 3.21668 13.4917 2.98616 13.6205 2.76486C13.7851 2.48823 13.9954 2.28538 14.2514 2.15628C14.5074 2.02719 14.7909 1.96265 15.1018 1.96265C15.4858 1.96265 15.879 2.05485 16.2813 2.23927C16.6837 2.42369 17.0494 2.68187 17.3786 3.01382L22.0145 7.71645C22.3437 8.0484 22.5862 8.41723 22.742 8.82295C22.8978 9.22867 22.9753 9.69893 22.9746 10.2337C22.9746 10.6026 22.8923 10.9762 22.7277 11.3546C22.5631 11.733 22.3254 12.0786 22.0145 12.3914L12.8798 21.6307C12.7335 21.7782 12.6055 21.8704 12.4958 21.9073C12.3861 21.9442 12.2581 21.9626 12.1118 21.9626ZM2.017 12.1425C1.66954 11.8843 1.40912 11.5756 1.23576 11.2163C1.06239 10.8571 0.975341 10.4742 0.974609 10.0678C0.974609 9.6436 1.06166 9.22867 1.23576 8.82295C1.40985 8.41723 1.66113 8.0484 1.98957 7.71645L6.62548 3.01382C6.93637 2.70031 7.27945 2.46057 7.65471 2.2946C8.02997 2.12862 8.42754 2.04563 8.84743 2.04563C9.30462 2.04563 9.74827 2.12862 10.1784 2.2946C10.6085 2.46057 10.9787 2.70031 11.2888 3.01382L16.9123 8.68464C17.0037 8.77685 17.0816 8.89229 17.146 9.03097C17.2103 9.16965 17.2422 9.31239 17.2414 9.45919C17.2414 9.7727 17.1365 10.0357 16.9265 10.2481C16.7166 10.4606 16.4558 10.5664 16.1442 10.5657C15.9979 10.5657 15.8563 10.5336 15.7195 10.4694C15.5828 10.4052 15.4683 10.3267 15.3761 10.2337L12.002 6.85891C11.5814 6.43475 11.065 6.22267 10.4527 6.22267C9.84044 6.22267 9.32364 6.43475 8.90229 6.85891L3.74518 12.0595C3.50744 12.2992 3.22874 12.4239 2.90907 12.4335C2.58941 12.4431 2.29205 12.346 2.017 12.1425Z" fill="white"/>
</svg>
