<svg width="24" height="24" viewBox="0 0 24 24" fill="none" xmlns="http://www.w3.org/2000/svg">
<path d="M9.28516 4.95631C9.79102 3.47593 11.8354 3.42125 12.4453 4.80397L12.5088 4.97096L13.3916 7.55397C13.6182 8.21721 13.9847 8.82457 14.4658 9.33424C14.9469 9.84384 15.5317 10.2446 16.1807 10.509L16.1875 10.512L16.1953 10.5139L16.4336 10.6038L16.4473 10.6087L19.0439 11.4954C20.5279 12.0025 20.5792 14.056 19.1875 14.6604L19.041 14.7151L16.4463 15.6018C15.783 15.8283 15.1758 16.195 14.666 16.676C14.1563 17.157 13.7558 17.7419 13.4912 18.3909L13.4863 18.4046L13.3965 18.6419L13.3945 18.6497L13.3916 18.6565L12.5049 21.2542C11.9972 22.7399 9.94002 22.7889 9.33887 21.3938L9.28223 21.2473L8.39746 18.6575C8.17101 17.9941 7.80523 17.3871 7.32422 16.8772C6.9031 16.4309 6.40229 16.0678 5.84863 15.8069L5.6084 15.7014L5.5957 15.6965L5.35742 15.6077L5.34375 15.6018L2.74707 14.7151C1.26638 14.2094 1.21132 12.1674 2.58984 11.5569L2.75488 11.4924L5.34375 10.6087C6.00698 10.382 6.61435 10.0156 7.12402 9.53444C7.63371 9.05329 8.03438 8.46774 8.29883 7.81862L8.30371 7.80592L8.39258 7.56862L8.39551 7.56081L8.39746 7.55397L9.28516 4.95631Z" stroke="white"/>
<path d="M19.4325 1.76702L19.3361 1.5067C19.2717 1.3326 19.0254 1.3326 18.961 1.5067L18.8646 1.76702C18.4927 2.77285 18.3067 3.27577 17.9391 3.64333C17.5727 4.00979 17.0697 4.19577 16.0639 4.56773L15.8036 4.66409C15.6295 4.72853 15.6295 4.97477 15.8036 5.03921L16.0639 5.13557L16.0639 5.13558C17.0697 5.50753 17.5727 5.69352 17.9402 6.06107C18.3067 6.42753 18.4927 6.93045 18.8646 7.93629L18.961 8.19661C19.0254 8.3707 19.2717 8.3707 19.3361 8.1966L19.4325 7.93629C19.8044 6.93045 19.9904 6.42753 20.358 6.05997C20.7244 5.69351 21.2273 5.50753 22.2332 5.13557L22.4935 5.03921C22.6676 4.97477 22.6676 4.72853 22.4935 4.66409L22.2332 4.56773C21.2273 4.19577 20.7244 4.00979 20.3569 3.64223C19.9904 3.27577 19.8044 2.77285 19.4325 1.76702Z" stroke="white" stroke-linejoin="round"/>
</svg>
