<svg width="24" height="24" viewBox="0 0 24 24" fill="none" xmlns="http://www.w3.org/2000/svg">
<path d="M19.8874 12.531L21.2434 13.7385C21.4938 13.9475 21.6612 14.2392 21.7151 14.5608C21.769 14.8825 21.706 15.2128 21.5374 15.492L19.9024 18.285C19.7756 18.4988 19.5945 18.6753 19.3774 18.7965C19.1579 18.918 18.9114 18.9825 18.6604 18.984C18.5048 18.985 18.3499 18.9617 18.2014 18.915L16.4659 18.342C16.1619 18.537 15.8459 18.7115 15.5179 18.8655L15.1534 20.625C15.086 20.9487 14.9058 21.2379 14.6449 21.441C14.3808 21.6478 14.0533 21.7569 13.7179 21.75H10.3324C9.99706 21.7569 9.66959 21.6478 9.40545 21.441C9.14516 21.2376 8.9655 20.9485 8.89845 20.625L8.53245 18.8655C8.20875 18.7094 7.89468 18.5341 7.59195 18.3405L5.85045 18.915C5.70195 18.9617 5.5471 18.985 5.39145 18.984C5.14103 18.9822 4.89506 18.9178 4.67595 18.7965C4.4591 18.6757 4.278 18.4998 4.15095 18.2865L2.45745 15.492C2.28139 15.2103 2.21412 14.874 2.26824 14.5462C2.32236 14.2185 2.49416 13.9217 2.75145 13.7115L4.10595 12V11.469L2.74995 10.2615C2.49954 10.0525 2.33223 9.76084 2.2783 9.43919C2.22437 9.11754 2.28739 8.78721 2.45595 8.50801L4.14945 5.71501C4.27629 5.50121 4.45741 5.32474 4.67445 5.20351C4.89356 5.08226 5.13953 5.0178 5.38995 5.01601C5.5442 5.00628 5.69902 5.02044 5.84895 5.05801L7.55595 5.65801C7.86095 5.46301 8.17695 5.28851 8.50395 5.13451L8.86995 3.37501C8.937 3.05156 9.11666 2.7624 9.37694 2.55901C9.64109 2.35223 9.96856 2.24307 10.3039 2.25001H13.6609C13.9963 2.24307 14.3238 2.35223 14.5879 2.55901C14.8504 2.76451 15.0304 3.05401 15.0949 3.37501L15.4609 5.13451C15.7859 5.28951 16.0994 5.46451 16.4014 5.65951L18.1444 5.08651C18.3379 5.02358 18.5423 5.00148 18.7447 5.02162C18.9471 5.04176 19.1432 5.1037 19.3204 5.20351C19.5379 5.32651 19.7179 5.50351 19.8454 5.71351L21.5374 8.50801C21.7159 8.78734 21.7866 9.12205 21.7363 9.44968C21.6861 9.77731 21.5184 10.0755 21.2644 10.2885L19.8874 11.4615V12.531Z" stroke="white"/>
<path d="M15.75 12C15.75 12.9946 15.3549 13.9484 14.6517 14.6517C13.9484 15.3549 12.9946 15.75 12 15.75C11.0054 15.75 10.0516 15.3549 9.34835 14.6517C8.64509 13.9484 8.25 12.9946 8.25 12C8.25 11.0054 8.64509 10.0516 9.34835 9.34835C10.0516 8.64509 11.0054 8.25 12 8.25C12.9946 8.25 13.9484 8.64509 14.6517 9.34835C15.3549 10.0516 15.75 11.0054 15.75 12Z" stroke="white"/>
</svg>
