<svg width="24" height="24" viewBox="0 0 24 24" fill="none" xmlns="http://www.w3.org/2000/svg">
<path d="M5.14302 14C4.39267 12.7712 3.99707 11.3588 4.00002 9.919C4.00002 5.545 7.58202 2 12 2C16.418 2 20 5.545 20 9.919C20.003 11.3588 19.6074 12.7712 18.857 14" stroke="white" stroke-linecap="round"/>
<path d="M15.0004 19L14.8704 19.647C14.7304 20.354 14.6594 20.707 14.5004 20.987C14.2554 21.4186 13.8587 21.7436 13.3874 21.899C13.0824 22 12.7204 22 12.0004 22C11.2804 22 10.9184 22 10.6134 21.9C10.1419 21.7444 9.74518 21.4189 9.50037 20.987C9.34137 20.707 9.27037 20.354 9.13037 19.647L9.00037 19M7.38337 17.098C7.29137 16.822 7.24537 16.683 7.25037 16.571C7.25603 16.4552 7.29511 16.3435 7.36291 16.2494C7.4307 16.1554 7.52429 16.083 7.63237 16.041C7.73637 16 7.88237 16 8.17237 16H15.8284C16.1194 16 16.2644 16 16.3684 16.04C16.4766 16.0821 16.5703 16.1546 16.6381 16.2489C16.7059 16.3431 16.7449 16.455 16.7504 16.571C16.7554 16.683 16.7094 16.821 16.6174 17.098C16.4474 17.609 16.3624 17.865 16.2314 18.072C15.9574 18.5046 15.5279 18.8156 15.0314 18.941C14.7934 19 14.5254 19 13.9884 19H10.0124C9.47537 19 9.20637 19 8.96937 18.94C8.47303 18.8149 8.04356 18.5042 7.76937 18.072C7.63837 17.865 7.55337 17.609 7.38337 17.098Z" stroke="white"/>
<path d="M12 16V11" stroke="white" stroke-linecap="round" stroke-linejoin="round"/>
</svg>
