<svg width="24" height="24" viewBox="0 0 24 24" fill="none" xmlns="http://www.w3.org/2000/svg">
<path d="M5.00195 14.7265V7.22832C5.00195 6.86675 5.14559 6.51998 5.40126 6.26431C5.65692 6.00865 6.00369 5.86501 6.36526 5.86501C6.72683 5.86501 7.07359 6.00865 7.32926 6.26431C7.58493 6.51998 7.72856 6.86675 7.72856 7.22832V11.9999V4.50171C7.72856 4.14014 7.87219 3.79338 8.12786 3.53771C8.38353 3.28204 8.73029 3.1384 9.09186 3.1384C9.45344 3.1384 9.8002 3.28204 10.0559 3.53771C10.3115 3.79338 10.4552 4.14014 10.4552 4.50171V11.3182V3.1384C10.4552 2.77683 10.5988 2.43007 10.8545 2.1744C11.1101 1.91873 11.4569 1.7751 11.8185 1.7751C12.18 1.7751 12.5268 1.91873 12.7825 2.1744C13.0381 2.43007 13.1818 2.77683 13.1818 3.1384V11.3182M13.1818 11.3608V5.18336C13.1818 4.82179 13.3254 4.47503 13.5811 4.21936C13.8367 3.96369 14.1835 3.82006 14.5451 3.82006C14.9067 3.82006 15.2534 3.96369 15.5091 4.21936C15.7647 4.47503 15.9084 4.82179 15.9084 5.18336V14.7265" stroke="white" stroke-linecap="round" stroke-linejoin="round"/>
<path d="M5.00195 14.7264C5.00195 19.728 7.72856 22.2246 11.4776 22.2246C15.2267 22.2246 16.7481 20.5375 17.6125 18.4755L19.8581 12.3406C20.1419 11.5716 20.0132 10.8585 19.3524 10.4831C18.6912 10.1074 17.8225 10.3008 17.4647 10.9807L15.9084 14.7264" stroke="white" stroke-linecap="round" stroke-linejoin="round"/>
</svg>
