<svg width="24" height="24" viewBox="0 0 24 24" fill="none" xmlns="http://www.w3.org/2000/svg">
<path d="M20.2319 9.98391C19.6044 9.69945 18.8828 10.0402 18.6278 10.741L17.1662 14.4062H16.6966V4.4375C16.6966 3.68125 16.1425 3.0625 15.4654 3.0625C14.7879 3.0625 14.2342 3.68125 14.2342 4.4375V10.958L13.6184 10.9688V2.375C13.6184 1.61875 13.0643 1 12.3872 1C11.7102 1 11.156 1.61875 11.156 2.375V10.958L10.5415 10.9688V3.75C10.5415 2.99375 9.9873 2.375 9.31025 2.375C8.63277 2.375 8.07905 2.99375 8.07905 3.75V11.6455L7.4624 11.6562V6.5C7.4624 5.74375 6.90826 5.125 6.2312 5.125C5.55415 5.125 5 5.74375 5 6.5V15.7812C5 19.0383 6.54702 23 12.0414 23C13.7413 23 15.3504 22.6992 16.2354 22.0977C16.7903 21.7204 17.2678 21.234 17.6403 20.6664C17.9188 20.2428 18.1428 19.7838 18.307 19.3008L20.909 11.7753C21.166 11.0745 20.8594 10.2688 20.2319 9.98391Z" fill="white"/>
</svg>
