<svg width="24" height="24" viewBox="0 0 24 24" fill="none" xmlns="http://www.w3.org/2000/svg">
<path d="M3.89957 6H20.1C20.264 6.0005 20.4248 6.04414 20.565 6.12622C20.7053 6.2083 20.8196 6.32572 20.8958 6.46584C20.972 6.60596 21.0071 6.76347 20.9974 6.92142C20.9877 7.07937 20.9336 7.23177 20.8407 7.36223L12.7405 18.649C12.4048 19.117 11.5966 19.117 11.26 18.649L3.15974 7.36223C3.06598 7.23205 3.011 7.07957 3.00077 6.92135C2.99054 6.76314 3.02545 6.60525 3.10171 6.46484C3.17796 6.32442 3.29266 6.20685 3.43332 6.1249C3.57398 6.04295 3.73524 5.99975 3.89957 6Z" fill="white"/>
</svg>
