<svg width="24" height="24" viewBox="0 0 24 24" fill="none" xmlns="http://www.w3.org/2000/svg">
<path d="M17.499 20.5995V4.399C17.4985 4.23498 17.4549 4.0742 17.3728 3.93398C17.2907 3.79375 17.1733 3.67939 17.0332 3.6032C16.8931 3.52701 16.7355 3.49188 16.5776 3.50158C16.4197 3.51129 16.2672 3.56546 16.1368 3.65828L4.85 11.7585C4.38203 12.0942 4.38203 12.9024 4.85 13.239L16.1368 21.3393C16.267 21.433 16.4195 21.488 16.5777 21.4983C16.7359 21.5085 16.8938 21.4736 17.0342 21.3973C17.1746 21.3211 17.2922 21.2064 17.3741 21.0657C17.4561 20.925 17.4993 20.7638 17.499 20.5995Z" fill="white"/>
</svg>
