<svg width="24" height="24" viewBox="0 0 24 24" fill="none" xmlns="http://www.w3.org/2000/svg">
<path d="M5.99902 21.0494L5.99902 3.94894C5.99956 3.77581 6.04655 3.6061 6.13495 3.45809C6.22335 3.31007 6.3498 3.18936 6.5007 3.10893C6.6516 3.02851 6.82123 2.99142 6.99133 3.00167C7.16142 3.01191 7.32555 3.0691 7.46604 3.16707L19.621 11.7173C20.125 12.0717 20.125 12.9248 19.621 13.2801L7.46604 21.8304C7.32584 21.9293 7.16163 21.9874 6.99125 21.9982C6.82087 22.009 6.65083 21.9721 6.49962 21.8916C6.3484 21.8111 6.22179 21.6901 6.13353 21.5416C6.04528 21.3931 5.99876 21.2229 5.99902 21.0494Z" fill="white"/>
</svg>
