<svg width="24" height="24" viewBox="0 0 24 24" fill="none" xmlns="http://www.w3.org/2000/svg">
<path d="M3.89957 18H20.1C20.264 17.9995 20.4248 17.9559 20.565 17.8738C20.7053 17.7917 20.8196 17.6743 20.8958 17.5342C20.972 17.394 21.0072 17.2365 20.9974 17.0786C20.9877 16.9206 20.9336 16.7682 20.8407 16.6378L12.7405 5.35098C12.4048 4.88301 11.5966 4.88301 11.26 5.35098L3.15974 16.6378C3.06598 16.768 3.011 16.9204 3.00077 17.0786C2.99054 17.2369 3.02545 17.3947 3.10171 17.5352C3.17796 17.6756 3.29266 17.7931 3.43332 17.8751C3.57398 17.9571 3.73524 18.0002 3.89957 18Z" fill="white"/>
</svg>
