<svg width="24" height="24" viewBox="0 0 24 24" fill="none" xmlns="http://www.w3.org/2000/svg">
<path d="M12.002 22.002C17.525 22.002 22.003 17.524 22.003 12C22.003 6.477 17.525 1.999 12.002 1.999C6.478 1.999 2 6.477 2 12C2 17.524 6.478 22.002 12.002 22.002ZM12 13.501C11.8011 13.501 11.6103 13.422 11.4697 13.2813C11.329 13.1407 11.25 12.9499 11.25 12.751V7.751C11.25 7.55209 11.329 7.36132 11.4697 7.22067C11.6103 7.08002 11.8011 7.001 12 7.001C12.1989 7.001 12.3897 7.08002 12.5303 7.22067C12.671 7.36132 12.75 7.55209 12.75 7.751V12.751C12.75 12.9499 12.671 13.1407 12.5303 13.2813C12.3897 13.422 12.1989 13.501 12 13.501ZM12 15.001C12.2652 15.001 12.5196 15.1064 12.7071 15.2939C12.8946 15.4814 13 15.7358 13 16.001C13 16.2662 12.8946 16.5206 12.7071 16.7081C12.5196 16.8956 12.2652 17.001 12 17.001C11.7348 17.001 11.4804 16.8956 11.2929 16.7081C11.1054 16.5206 11 16.2662 11 16.001C11 15.7358 11.1054 15.4814 11.2929 15.2939C11.4804 15.1064 11.7348 15.001 12 15.001Z" fill="white"/>
</svg>
