<svg width="24" height="24" viewBox="0 0 24 24" fill="none" xmlns="http://www.w3.org/2000/svg">
<path d="M12 21C13.1821 21.0014 14.3529 20.7693 15.445 20.3169C16.5371 19.8645 17.5291 19.2008 18.3639 18.3639C19.2008 17.5291 19.8645 16.5371 20.3169 15.445C20.7693 14.3528 21.0015 13.1821 21 12C21.0015 10.8179 20.7693 9.64714 20.3169 8.55502C19.8645 7.46289 19.2008 6.47092 18.3639 5.6361C17.5291 4.79917 16.5371 4.13545 15.445 3.68306C14.3529 3.23067 13.1821 2.99854 12 3C10.8179 2.99854 9.64714 3.23067 8.55502 3.68306C7.4629 4.13545 6.47093 4.79917 5.6361 5.6361C4.79918 6.47092 4.13545 7.46289 3.68307 8.55502C3.23068 9.64714 2.99855 10.8179 3.00001 12C2.99855 13.1821 3.23068 14.3528 3.68307 15.445C4.13545 16.5371 4.79918 17.5291 5.6361 18.3639C6.47093 19.2008 7.4629 19.8645 8.55502 20.3169C9.64714 20.7693 10.8179 21.0014 12 21Z" stroke="white" stroke-linejoin="round"/>
<path d="M8 12L11 15L17 8.99999" stroke="white" stroke-linecap="round" stroke-linejoin="round"/>
</svg>
