<svg width="24" height="24" viewBox="0 0 24 24" fill="none" xmlns="http://www.w3.org/2000/svg">
<path d="M6 22V4C6 3.46957 5.99866 2.5253 6.26138 2.26272C6.52411 2.00014 7.46957 2 8 2H16C16.5304 2 17.5967 2.06106 17.7983 2.26258C18.0001 2.46417 18 3.46957 18 4V22M6 22H18M6 22H4C3.46957 22 2.77481 22.0625 2.39974 21.6875C2.02467 21.3124 2 20.5304 2 20V14C2 13.4696 2.02467 12.8066 2.39974 12.4315C2.77481 12.0564 3.46957 12 4 12H6M18 22H20C20.5304 22 21.3781 22.0625 21.7532 21.6875C22.1282 21.3124 22 20.5304 22 20V11C22 10.4696 22.1282 9.66513 21.7532 9.29005C21.3781 8.91498 20.5304 9 20 9H18M10 6H14M10 10H14M10 14H14M10 18H14" stroke="white" stroke-linecap="round" stroke-linejoin="round"/>
</svg>
