<svg width="24" height="24" viewBox="0 0 24 24" fill="none" xmlns="http://www.w3.org/2000/svg">
<mask id="path-1-outside-1_399_19708" maskUnits="userSpaceOnUse" x="2.97461" y="0.280029" width="18" height="23" fill="black">
<rect fill="white" x="2.97461" y="0.280029" width="18" height="23"/>
<path d="M19.6504 11.157C19.9155 11.157 20.1309 11.3724 20.1309 11.6375C20.1308 16.0326 16.7808 19.6432 12.5332 19.8982V22.5544C12.533 22.8194 12.3177 23.0339 12.0527 23.0339C11.788 23.0337 11.5734 22.8192 11.5732 22.5544V19.8982C7.32544 19.6434 3.97465 16.0327 3.97461 11.6375C3.97461 11.3725 4.19015 11.1572 4.45508 11.157C4.72017 11.157 4.93555 11.3724 4.93555 11.6375C4.93559 15.6904 8.13376 18.9546 12.0527 18.9548C15.9719 18.9548 19.1709 15.6905 19.1709 11.6375C19.1709 11.3726 19.3856 11.1573 19.6504 11.157ZM12.0537 1.28003C14.2883 1.28033 16.079 3.13648 16.0791 5.39917V12.157C16.079 14.4197 14.2884 16.2758 12.0537 16.2761C9.8188 16.2761 8.02743 14.4199 8.02734 12.157V5.39917C8.02747 3.13629 9.81882 1.28003 12.0537 1.28003ZM12.0537 2.24097C10.3724 2.24097 8.98841 3.64284 8.98828 5.39917V12.157C8.98837 13.9133 10.3723 15.3162 12.0537 15.3162C13.7348 15.3159 15.1191 13.9132 15.1191 12.157V5.39917C15.119 3.64303 13.7348 2.24127 12.0537 2.24097Z"/>
</mask>
<path d="M19.6504 11.157C19.9155 11.157 20.1309 11.3724 20.1309 11.6375C20.1308 16.0326 16.7808 19.6432 12.5332 19.8982V22.5544C12.533 22.8194 12.3177 23.0339 12.0527 23.0339C11.788 23.0337 11.5734 22.8192 11.5732 22.5544V19.8982C7.32544 19.6434 3.97465 16.0327 3.97461 11.6375C3.97461 11.3725 4.19015 11.1572 4.45508 11.157C4.72017 11.157 4.93555 11.3724 4.93555 11.6375C4.93559 15.6904 8.13376 18.9546 12.0527 18.9548C15.9719 18.9548 19.1709 15.6905 19.1709 11.6375C19.1709 11.3726 19.3856 11.1573 19.6504 11.157ZM12.0537 1.28003C14.2883 1.28033 16.079 3.13648 16.0791 5.39917V12.157C16.079 14.4197 14.2884 16.2758 12.0537 16.2761C9.8188 16.2761 8.02743 14.4199 8.02734 12.157V5.39917C8.02747 3.13629 9.81882 1.28003 12.0537 1.28003ZM12.0537 2.24097C10.3724 2.24097 8.98841 3.64284 8.98828 5.39917V12.157C8.98837 13.9133 10.3723 15.3162 12.0537 15.3162C13.7348 15.3159 15.1191 13.9132 15.1191 12.157V5.39917C15.119 3.64303 13.7348 2.24127 12.0537 2.24097Z" fill="white"/>
<path d="M19.6504 11.157V11.117H19.6503L19.6504 11.157ZM20.1309 11.6375H20.1709H20.1309ZM12.5332 19.8982L12.5308 19.8583C12.5097 19.8595 12.4932 19.877 12.4932 19.8982H12.5332ZM12.5332 22.5544L12.5732 22.5545V22.5544H12.5332ZM12.0527 23.0339L12.0527 23.0739H12.0527V23.0339ZM11.5732 22.5544H11.5332V22.5545L11.5732 22.5544ZM11.5732 19.8982H11.6132C11.6132 19.877 11.5968 19.8595 11.5756 19.8583L11.5732 19.8982ZM3.97461 11.6375H3.93461H3.97461ZM4.45508 11.157V11.117H4.45505L4.45508 11.157ZM4.93555 11.6375H4.89555H4.93555ZM12.0527 18.9548L12.0527 18.9948H12.0527V18.9548ZM19.1709 11.6375H19.2109H19.1709ZM12.0537 1.28003L12.0537 1.24003H12.0537V1.28003ZM16.0791 5.39917H16.1191V5.39917L16.0791 5.39917ZM16.0791 12.157L16.1191 12.157V12.157H16.0791ZM12.0537 16.2761V16.3161H12.0537L12.0537 16.2761ZM8.02734 12.157H7.98734V12.157L8.02734 12.157ZM8.02734 5.39917L7.98734 5.39917V5.39917H8.02734ZM12.0537 2.24097L12.0537 2.20097H12.0537V2.24097ZM8.98828 5.39917L8.94828 5.39917V5.39917H8.98828ZM8.98828 12.157H8.94828V12.157L8.98828 12.157ZM12.0537 15.3162V15.3562H12.0537L12.0537 15.3162ZM15.1191 12.157L15.1591 12.157V12.157H15.1191ZM15.1191 5.39917H15.1591V5.39917L15.1191 5.39917ZM19.6504 11.157V11.197C19.8934 11.197 20.0909 11.3944 20.0909 11.6375H20.1309H20.1709C20.1709 11.3503 19.9376 11.117 19.6504 11.117V11.157ZM20.1309 11.6375H20.0909C20.0908 16.0122 16.7565 19.6046 12.5308 19.8583L12.5332 19.8982L12.5356 19.9381C16.8051 19.6819 20.1708 16.053 20.1709 11.6375H20.1309ZM12.5332 19.8982H12.4932V22.5544H12.5332H12.5732V19.8982H12.5332ZM12.5332 22.5544L12.4932 22.5544C12.493 22.7972 12.2957 22.9939 12.0527 22.9939V23.0339V23.0739C12.3397 23.0739 12.573 22.8416 12.5732 22.5545L12.5332 22.5544ZM12.0527 23.0339L12.0528 22.9939C11.8101 22.9937 11.6134 22.7971 11.6132 22.5544L11.5732 22.5544L11.5332 22.5545C11.5334 22.8413 11.7659 23.0737 12.0527 23.0739L12.0527 23.0339ZM11.5732 22.5544H11.6132V19.8982H11.5732H11.5332V22.5544H11.5732ZM11.5732 19.8982L11.5756 19.8583C7.34972 19.6048 4.01465 16.0123 4.01461 11.6375H3.97461H3.93461C3.93465 16.0531 7.30116 19.6821 11.5708 19.9381L11.5732 19.8982ZM3.97461 11.6375H4.01461C4.01461 11.3946 4.21222 11.1972 4.45511 11.197L4.45508 11.157L4.45505 11.117C4.16808 11.1172 3.93461 11.3504 3.93461 11.6375H3.97461ZM4.45508 11.157V11.197C4.69808 11.197 4.89555 11.3944 4.89555 11.6375H4.93555H4.97555C4.97555 11.3503 4.74227 11.117 4.45508 11.117V11.157ZM4.93555 11.6375H4.89555C4.89559 15.7115 8.11071 18.9946 12.0527 18.9948L12.0527 18.9548L12.0527 18.9148C8.1568 18.9146 4.97559 15.6692 4.97555 11.6375H4.93555ZM12.0527 18.9548V18.9948C15.995 18.9948 19.2109 15.7117 19.2109 11.6375H19.1709H19.1309C19.1309 15.6694 15.9489 18.9148 12.0527 18.9148V18.9548ZM19.1709 11.6375H19.2109C19.2109 11.3946 19.4077 11.1973 19.6504 11.197L19.6504 11.157L19.6503 11.117C19.3634 11.1173 19.1309 11.3505 19.1309 11.6375H19.1709ZM12.0537 1.28003L12.0537 1.32003C14.2652 1.32033 16.039 3.15755 16.0391 5.39917L16.0791 5.39917L16.1191 5.39917C16.119 3.11541 14.3114 1.24033 12.0537 1.24003L12.0537 1.28003ZM16.0791 5.39917H16.0391V12.157H16.0791H16.1191V5.39917H16.0791ZM16.0791 12.157L16.0391 12.157C16.039 14.3986 14.2653 16.2358 12.0537 16.2361L12.0537 16.2761L12.0537 16.3161C14.3115 16.3158 16.119 14.4408 16.1191 12.157L16.0791 12.157ZM12.0537 16.2761V16.2361C9.84189 16.2361 8.06743 14.3988 8.06734 12.157L8.02734 12.157L7.98734 12.157C7.98743 14.441 9.79571 16.3161 12.0537 16.3161V16.2761ZM8.02734 12.157H8.06734V5.39917H8.02734H7.98734V12.157H8.02734ZM8.02734 5.39917L8.06734 5.39917C8.06747 3.15737 9.84192 1.32003 12.0537 1.32003V1.28003V1.24003C9.79573 1.24003 7.98747 3.11522 7.98734 5.39917L8.02734 5.39917ZM12.0537 2.24097V2.20097C10.3493 2.20097 8.94841 3.62168 8.94828 5.39917L8.98828 5.39917L9.02828 5.39917C9.02841 3.66399 10.3954 2.28097 12.0537 2.28097V2.24097ZM8.98828 5.39917H8.94828V12.157H8.98828H9.02828V5.39917H8.98828ZM8.98828 12.157L8.94828 12.157C8.94837 13.9345 10.3493 15.3562 12.0537 15.3562V15.3162V15.2762C10.3954 15.2762 9.02837 13.8922 9.02828 12.157L8.98828 12.157ZM12.0537 15.3162L12.0537 15.3562C13.7579 15.3559 15.1591 13.9343 15.1591 12.157L15.1191 12.157L15.0791 12.157C15.0791 13.892 13.7118 15.2759 12.0537 15.2762L12.0537 15.3162ZM15.1191 12.157H15.1591V5.39917H15.1191H15.0791V12.157H15.1191ZM15.1191 5.39917L15.1591 5.39917C15.159 3.62186 13.7578 2.20127 12.0537 2.20097L12.0537 2.24097L12.0537 2.28097C13.7118 2.28127 15.079 3.66419 15.0791 5.39917L15.1191 5.39917Z" fill="white" mask="url(#path-1-outside-1_399_19708)"/>
</svg>
