<svg width="24" height="24" viewBox="0 0 24 24" fill="none" xmlns="http://www.w3.org/2000/svg">
<path d="M21.75 12C21.75 14.5859 20.7228 17.0658 18.8943 18.8943C17.0658 20.7228 14.5859 21.75 12 21.75M21.75 12C21.75 9.41414 20.7228 6.93419 18.8943 5.10571C17.0658 3.27723 14.5859 2.25 12 2.25M21.75 12C21.75 14.4855 17.385 16.5 12 16.5C6.615 16.5 2.25 14.4855 2.25 12M21.75 12C21.75 9.5145 17.385 7.5 12 7.5C6.615 7.5 2.25 9.5145 2.25 12M12 21.75C9.41414 21.75 6.93419 20.7228 5.10571 18.8943C3.27723 17.0658 2.25 14.5859 2.25 12M12 21.75C14.4855 21.75 16.5 17.385 16.5 12C16.5 6.615 14.4855 2.25 12 2.25M12 21.75C9.5145 21.75 7.5 17.385 7.5 12C7.5 6.615 9.5145 2.25 12 2.25M12 2.25C9.41414 2.25 6.93419 3.27723 5.10571 5.10571C3.27723 6.93419 2.25 9.41414 2.25 12" stroke="white" stroke-width="1.1"/>
</svg>
