<svg width="24" height="24" viewBox="0 0 24 24" fill="none" xmlns="http://www.w3.org/2000/svg">
<path d="M18.1895 3.21094C18.4649 3.21107 18.7216 3.32925 18.9053 3.52637C19.0878 3.72237 19.1855 3.98158 19.1855 4.24512V16.3525C19.1855 16.3983 19.1761 16.4425 19.1641 16.4844C19.1762 16.5265 19.1855 16.5711 19.1855 16.6172C19.1851 16.8819 18.9699 17.0967 18.7051 17.0967H6.66113C6.34358 17.0967 6.03155 17.2315 5.7959 17.4844C5.55917 17.7384 5.42092 18.09 5.4209 18.4629C5.42095 18.8357 5.55925 19.1874 5.7959 19.4414C6.03152 19.6941 6.34367 19.8291 6.66113 19.8291L18.7051 19.8301C18.9701 19.8301 19.1854 20.0446 19.1855 20.3096C19.1853 20.5745 18.97 20.79 18.7051 20.79H6.66113C6.65423 20.79 6.64745 20.7874 6.64062 20.7871C6.05324 20.7813 5.49768 20.5302 5.09277 20.0957C4.6844 19.6573 4.46001 19.0692 4.45996 18.4629V5.53809C4.45996 4.93188 4.68459 4.34368 5.09277 3.90527C5.50239 3.46569 6.06618 3.21098 6.66113 3.21094H18.1895ZM6.66113 4.17188C6.34358 4.17192 6.03155 4.30674 5.7959 4.55957C5.55931 4.81363 5.4209 5.16531 5.4209 5.53809V16.54C5.78132 16.2803 6.21248 16.1358 6.66113 16.1357L18.2256 16.1367V4.24512C18.2255 4.21529 18.2139 4.19238 18.2031 4.18066C18.1981 4.17523 18.1935 4.17279 18.1914 4.17188H6.66113ZM14.5996 6C15.5937 6 16.3993 6.80578 16.3994 7.7998C16.3994 8.79392 15.5937 9.59961 14.5996 9.59961H9.39941C8.40544 9.59945 7.59961 8.79382 7.59961 7.7998C7.59971 6.80588 8.4055 6.00016 9.39941 6H14.5996ZM9.39941 6.95996C8.9357 6.96012 8.55968 7.33607 8.55957 7.7998C8.55957 8.26363 8.93563 8.63949 9.39941 8.63965H14.5996C15.0635 8.63965 15.4395 8.26372 15.4395 7.7998C15.4393 7.33598 15.0635 6.95996 14.5996 6.95996H9.39941Z" fill="white"/>
</svg>
