<svg width="24" height="24" viewBox="0 0 24 24" fill="none" xmlns="http://www.w3.org/2000/svg">
<path d="M6.85427 19.2888C9.36837 19.2926 11.8377 18.6235 14.0058 17.3508C14.291 17.1836 14.2674 16.7729 13.9711 16.6258L12.4285 15.8588C13.8446 15.8588 16.716 15.2855 16.716 15.2855C19.7803 12.3066 21.3379 8.0096 20.9383 3.77697C20.9211 3.59288 20.8402 3.42057 20.7094 3.28984C20.5787 3.1591 20.4064 3.07814 20.2223 3.06095C18.0126 2.84942 15.7841 3.15761 13.7147 3.9609C13.7147 3.9609 13.0064 5.6296 12.8572 6.42622L11.9894 5.21843C11.928 5.13162 11.8359 5.07135 11.7317 5.04979C11.6275 5.02823 11.5191 5.04697 11.4282 5.10224C7.39664 7.57828 4.71094 11.7256 4.71094 17.3594" stroke="white" stroke-linecap="round" stroke-linejoin="round"/>
<path d="M2.99609 21.0038C5.13985 14.7869 11.9999 9.42749 17.5737 6.42622" stroke="white" stroke-linecap="round" stroke-linejoin="round"/>
</svg>
