<svg width="24" height="24" viewBox="0 0 24 24" fill="none" xmlns="http://www.w3.org/2000/svg">
<path d="M14.4505 11.2857C15.4998 11.2857 16.506 10.8718 17.2479 10.1351C17.9898 9.39831 18.4066 8.39906 18.4066 7.35714C18.4066 6.31522 17.9898 5.31597 17.2479 4.57922C16.506 3.84247 15.4998 3.42857 14.4505 3.42857M18.4066 18.8571H21.5714V18.0054C21.5546 16.4145 20.9991 14.8755 19.9945 13.6361C18.9898 12.3967 18.5945 11.5291 17.033 11.1729M9.12088 11.2857C10.1701 11.2857 11.1763 10.8718 11.9182 10.1351C12.6601 9.39831 13.0769 8.39906 13.0769 7.35714C13.0769 6.31522 12.6601 5.31597 11.9182 4.57922C11.1763 3.84247 10.1701 3.42857 9.12088 3.42857C8.07167 3.42857 7.06544 3.84247 6.32353 4.57922C5.58163 5.31597 5.16484 6.31522 5.16484 7.35714C5.16484 8.39906 5.58163 9.39831 6.32353 10.1351C7.06544 10.8718 8.07167 11.2857 9.12088 11.2857ZM2 20.5714H16.2418V19.7197C16.2316 18.7697 16.0292 17.8314 15.6466 16.9606C15.264 16.0898 14.709 15.3043 14.0146 14.6508C13.3202 13.9973 12.5005 13.489 11.6044 13.1564C10.7082 12.8237 9.75389 12.6734 8.79807 12.7143C6.97874 12.8 5.26126 13.5733 3.9974 14.8757C2.73354 16.1781 2.01895 17.9111 2 19.7197V20.5714Z" stroke="white" stroke-linecap="round" stroke-linejoin="round"/>
</svg>
