<svg width="24" height="24" viewBox="0 0 24 24" fill="none" xmlns="http://www.w3.org/2000/svg">
<path d="M10.1658 11.3429L3.68784 17.8208C3.51746 17.991 3.3823 18.1931 3.29008 18.4155C3.19786 18.638 3.15039 18.8765 3.15039 19.1173C3.15039 19.3581 3.19786 19.5966 3.29008 19.819C3.3823 20.0415 3.51746 20.2436 3.68784 20.4138C4.03149 20.7573 4.49751 20.9503 4.98343 20.9503C5.46934 20.9503 5.93537 20.7573 6.27901 20.4138L12.7569 13.934M16.7106 14.2685L20.2638 17.8217C20.6074 18.1654 20.8004 18.6314 20.8004 19.1173C20.8004 19.6032 20.6074 20.0692 20.2638 20.4129C19.9202 20.7564 19.4541 20.9494 18.9682 20.9494C18.4823 20.9494 18.0163 20.7564 17.6726 20.4129L11.9836 14.7248M7.12655 7.03371L5.18134 7.68059L3.23888 4.44163L4.53446 3.14604L7.77434 5.08942L7.12655 7.03371ZM7.12655 7.03371L9.71955 9.62672" stroke="white" stroke-linecap="round" stroke-linejoin="round"/>
<path d="M10.1655 11.343C9.39222 9.37032 9.5434 6.7819 11.1377 5.18762C12.732 3.59333 15.6731 3.24424 17.2922 4.21639L14.5068 7.0018C13.6553 8.17949 13.6529 8.80198 14.2475 9.85227C15.3607 10.2993 15.9848 10.3293 17.0979 9.59389L19.8833 6.80756C20.8564 8.4275 20.5064 11.3687 18.9121 12.962C17.3178 14.5563 14.7303 14.7075 12.7576 13.9342" stroke="white" stroke-linecap="round" stroke-linejoin="round"/>
</svg>
