<svg viewBox="0 0 32 32" fill="none" xmlns="http://www.w3.org/2000/svg">
<path d="M13.555 15.1239L4.91777 23.7612C4.6906 23.9881 4.51038 24.2575 4.38742 24.5542C4.26446 24.8508 4.20117 25.1687 4.20117 25.4898C4.20117 25.8109 4.26446 26.1289 4.38742 26.4255C4.51038 26.7221 4.6906 26.9916 4.91777 27.2185C5.37597 27.6765 5.99733 27.9339 6.64522 27.9339C7.29311 27.9339 7.91447 27.6765 8.37267 27.2185L17.0099 18.5788M22.2814 19.0247L27.0191 23.7624C27.4771 24.2206 27.7345 24.8419 27.7345 25.4898C27.7345 26.1377 27.4771 26.7591 27.0191 27.2173C26.5609 27.6753 25.9395 27.9326 25.2916 27.9326C24.6437 27.9326 24.0224 27.6753 23.5642 27.2173L15.9788 19.6331M9.50271 9.37839L6.9091 10.2409L4.31915 5.92227L6.0466 4.19482L10.3664 6.78599L9.50271 9.37839ZM9.50271 9.37839L12.9601 12.8357" stroke="currentColor" stroke-width="1.33333" stroke-linecap="round" stroke-linejoin="round"/>
<path d="M13.5547 15.124C12.5236 12.4937 12.7252 9.04247 14.8509 6.91676C16.9766 4.79105 20.8982 4.32559 23.0569 5.62179L19.343 9.33568C18.2077 10.9059 18.2045 11.7359 18.9973 13.1363C20.4815 13.7323 21.3137 13.7723 22.7979 12.7918L26.5118 9.07668C27.8092 11.2366 27.3425 15.1582 25.2168 17.2827C23.0911 19.4084 19.6411 19.61 17.0108 18.5789" stroke="currentColor" stroke-width="1.33333" stroke-linecap="round" stroke-linejoin="round"/>
</svg>
