<svg width="24" height="24" viewBox="0 0 24 24" fill="none" xmlns="http://www.w3.org/2000/svg">
<path d="M16.5506 4.08405C17.6287 4.08471 18.6823 4.40492 19.5783 5.00422C20.4744 5.60353 21.1727 6.45502 21.5849 7.45109C21.9972 8.44715 22.1049 9.54308 21.8945 10.6003C21.684 11.6576 21.1649 12.6288 20.4026 13.3911L19.7546 14.0451L18.8946 14.8991L12.0426 21.7511L5.19065 14.9001L4.33065 14.0461L3.68265 13.3921C3.15404 12.8911 2.73112 12.2894 2.43886 11.6224C2.1466 10.9553 1.99091 10.2365 1.98098 9.50831C1.97105 8.78012 2.10708 8.05732 2.38104 7.38256C2.65501 6.7078 3.06136 6.09476 3.57612 5.5796C4.09087 5.06445 4.7036 4.65762 5.37814 4.38313C6.05269 4.10864 6.77538 3.97204 7.50357 3.98141C8.23177 3.99077 8.95071 4.1459 9.61798 4.43765C10.2852 4.72939 10.8873 5.15184 11.3886 5.68005L12.0426 6.33405L12.6976 5.68005C13.7195 4.65887 15.105 4.08518 16.5496 4.08505" stroke="white" stroke-miterlimit="10" stroke-linecap="round" stroke-linejoin="round"/>
</svg>
