<svg width="24" height="24" viewBox="0 0 24 24" fill="none" xmlns="http://www.w3.org/2000/svg">
<path d="M12.002 1.999C17.525 1.999 22.003 6.477 22.003 12.001C22.003 17.524 17.525 22.002 12.002 22.002C6.478 22.002 2 17.524 2 12.001C2 6.477 6.478 1.999 12.002 1.999ZM12 10.5C11.8011 10.5 11.6103 10.579 11.4697 10.7197C11.329 10.8603 11.25 11.0511 11.25 11.25V16.25C11.25 16.4489 11.329 16.6397 11.4697 16.7803C11.6103 16.921 11.8011 17 12 17C12.1989 17 12.3897 16.921 12.5303 16.7803C12.671 16.6397 12.75 16.4489 12.75 16.25V11.25C12.75 11.0511 12.671 10.8603 12.5303 10.7197C12.3897 10.579 12.1989 10.5 12 10.5ZM12 9C12.2652 9 12.5196 8.89464 12.7071 8.70711C12.8946 8.51957 13 8.26522 13 8C13 7.73478 12.8946 7.48043 12.7071 7.29289C12.5196 7.10536 12.2652 7 12 7C11.7348 7 11.4804 7.10536 11.2929 7.29289C11.1054 7.48043 11 7.73478 11 8C11 8.26522 11.1054 8.51957 11.2929 8.70711C11.4804 8.89464 11.7348 9 12 9Z" fill="white"/>
</svg>
