<svg width="24" height="24" viewBox="0 0 24 24" fill="none" xmlns="http://www.w3.org/2000/svg">
<path d="M16.5 7C16.3674 7 16.2402 6.94732 16.1464 6.85355C16.0527 6.75979 16 6.63261 16 6.5C16 6.36739 16.0527 6.24021 16.1464 6.14645C16.2402 6.05268 16.3674 6 16.5 6M16.5 7C16.6326 7 16.7598 6.94732 16.8536 6.85355C16.9473 6.75979 17 6.63261 17 6.5C17 6.36739 16.9473 6.24021 16.8536 6.14645C16.7598 6.05268 16.6326 6 16.5 6" stroke="white" stroke-linecap="round" stroke-linejoin="round"/>
<path d="M2.52595 6.48489C2.52595 5.43503 2.94301 4.42816 3.68538 3.6858C4.42774 2.94343 5.43461 2.52637 6.48447 2.52637H17.0415C17.5614 2.52637 18.0761 2.62876 18.5564 2.8277C19.0367 3.02663 19.4731 3.31822 19.8406 3.6858C20.2082 4.05338 20.4998 4.48976 20.6987 4.97003C20.8977 5.4503 21.0001 5.96505 21.0001 6.48489V17.042C21.0001 18.0918 20.583 19.0987 19.8406 19.8411C19.0983 20.5834 18.0914 21.0005 17.0415 21.0005H6.48293C5.43307 21.0005 4.4262 20.5834 3.68384 19.8411C2.94147 19.0987 2.52441 18.0918 2.52441 17.042L2.52595 6.48489Z" stroke="white" stroke-linecap="round" stroke-linejoin="round"/>
<path d="M7.83984 11.7634C7.83984 12.2786 7.94132 12.7888 8.13847 13.2647C8.33563 13.7407 8.62461 14.1732 8.9889 14.5375C9.3532 14.9018 9.78568 15.1908 10.2617 15.3879C10.7376 15.5851 11.2478 15.6866 11.763 15.6866C12.2782 15.6866 12.7883 15.5851 13.2643 15.3879C13.7403 15.1908 14.1728 14.9018 14.537 14.5375C14.9013 14.1732 15.1903 13.7407 15.3875 13.2647C15.5846 12.7888 15.6861 12.2786 15.6861 11.7634C15.6861 10.7229 15.2728 9.72508 14.537 8.98935C13.8013 8.25362 12.8035 7.84029 11.763 7.84029C10.7225 7.84029 9.72463 8.25362 8.9889 8.98935C8.25317 9.72508 7.83984 10.7229 7.83984 11.7634Z" stroke="white" stroke-linecap="round" stroke-linejoin="round"/>
</svg>
