<svg width="24" height="24" viewBox="0 0 24 24" fill="none" xmlns="http://www.w3.org/2000/svg">
<path d="M13.6111 14.9059V6.27937M13.6111 14.9059L20.0521 18.666C20.1484 18.7223 20.2574 18.7517 20.3683 18.7514C20.4792 18.7511 20.5881 18.7211 20.684 18.6643C20.78 18.6076 20.8597 18.526 20.9152 18.4279C20.9706 18.3298 20.9999 18.2185 21 18.1053V3.08001C21 2.96663 20.9709 2.85523 20.9155 2.75696C20.8602 2.6587 20.7805 2.57703 20.6845 2.52013C20.5885 2.46323 20.4795 2.43311 20.3686 2.43277C20.2576 2.43243 20.1484 2.46189 20.0521 2.51821L13.6111 6.27937M13.6111 14.9059H6.22222M13.6111 6.27937H6.22222C5.10242 6.27937 4.02848 6.7338 3.23666 7.5427C2.44484 8.35159 2 9.44869 2 10.5926C2 11.7366 2.44484 12.8337 3.23666 13.6426C4.02848 14.4515 5.10242 14.9059 6.22222 14.9059M6.22222 14.9059L7.02128 20.621C7.10465 21.177 7.39946 21.677 7.84164 22.0122C8.28382 22.3474 8.83764 22.4909 9.38275 22.4113C9.92786 22.3317 10.4202 22.0356 10.7528 21.5873C11.0854 21.139 11.2314 20.5748 11.1591 20.0171L10.4444 14.9059H6.22222Z" stroke="white"/>
</svg>
