<svg width="24" height="24" viewBox="0 0 24 24" fill="none" xmlns="http://www.w3.org/2000/svg">
<path fill-rule="evenodd" clip-rule="evenodd" d="M12 6.49998C12.8284 6.49998 13.5 5.82841 13.5 4.99998C13.5 4.17156 12.8284 3.49998 12 3.49998C11.1716 3.49998 10.5 4.17156 10.5 4.99998C10.5 5.82841 11.1716 6.49998 12 6.49998ZM12 20.5C12.8284 20.5 13.5 19.8284 13.5 19C13.5 18.1715 12.8284 17.5 12 17.5C11.1716 17.5 10.5 18.1715 10.5 19C10.5 19.8284 11.1716 20.5 12 20.5ZM12 13.5C12.8284 13.5 13.5 12.8284 13.5 12C13.5 11.1716 12.8284 10.5 12 10.5C11.1716 10.5 10.5 11.1716 10.5 12C10.5 12.8284 11.1716 13.5 12 13.5Z" fill="white"/>
</svg>
