<svg width="24" height="24" viewBox="0 0 24 24" fill="none" xmlns="http://www.w3.org/2000/svg">
<path d="M19.921 9.64L20.848 8.713C21.5855 7.97556 21.9997 6.97539 21.9997 5.9325C21.9997 4.88961 21.5855 3.88943 20.848 3.152C20.1106 2.41456 19.1104 2.00028 18.0675 2.00028C17.0246 2.00028 16.0245 2.41456 15.287 3.152L14.36 4.079L5.83802 12.599C5.26102 13.177 4.97202 13.466 4.72402 13.784C4.43141 14.1595 4.18028 14.5655 3.97502 14.995C3.80202 15.359 3.67302 15.747 3.41502 16.521L2.32102 19.802M19.921 9.64C19.921 9.64 17.952 9.524 16.214 7.786C14.476 6.049 14.361 4.079 14.361 4.079M19.921 9.64L11.4 18.16C10.823 18.737 10.534 19.026 10.216 19.274C9.84054 19.5666 9.43452 19.8177 9.00502 20.023C8.64102 20.196 8.25402 20.325 7.47902 20.583L4.19802 21.677L3.39602 21.945C3.20907 22.0077 3.00835 22.017 2.81641 21.9719C2.62446 21.9267 2.44891 21.829 2.30949 21.6895C2.17007 21.5501 2.07229 21.3746 2.02716 21.1826C1.98203 20.9907 1.99133 20.7899 2.05402 20.603L2.32202 19.801" stroke="white"/>
</svg>
