<svg width="24" height="24" viewBox="0 0 24 24" fill="none" xmlns="http://www.w3.org/2000/svg">
<path d="M11.96 1.75C9.93447 1.7579 7.95668 2.36577 6.27635 3.49685C4.59602 4.62793 3.28847 6.23151 2.51881 8.10513C1.74914 9.97876 1.55185 12.0384 1.95186 14.0241C2.35186 16.0097 3.33122 17.8324 4.76629 19.2619C6.20136 20.6914 8.02779 21.6636 10.015 22.0559C12.0022 22.4481 14.0611 22.2428 15.9317 21.4659C17.8023 20.6889 19.4008 19.3751 20.5253 17.6904C21.6498 16.0057 22.25 14.0256 22.25 12C22.2487 10.651 21.9813 9.3154 21.4633 8.0698C20.9452 6.82419 20.1866 5.69299 19.2308 4.74093C18.275 3.78886 17.1409 3.03464 15.8932 2.52142C14.6456 2.00819 13.309 1.74605 11.96 1.75ZM17.25 13H12.97V17.27C12.97 17.5352 12.8646 17.7896 12.6771 17.9771C12.4896 18.1646 12.2352 18.27 11.97 18.27C11.7048 18.27 11.4504 18.1646 11.2629 17.9771C11.0754 17.7896 10.97 17.5352 10.97 17.27V13H6.69C6.42479 13 6.17043 12.8946 5.9829 12.7071C5.79536 12.5196 5.69 12.2652 5.69 12C5.69 11.7348 5.79536 11.4804 5.9829 11.2929C6.17043 11.1054 6.42479 11 6.69 11H10.97V6.68C10.97 6.41478 11.0754 6.16043 11.2629 5.97289C11.4504 5.78536 11.7048 5.68 11.97 5.68C12.2352 5.68 12.4896 5.78536 12.6771 5.97289C12.8646 6.16043 12.97 6.41478 12.97 6.68V10.96H17.25C17.5152 10.96 17.7696 11.0654 17.9571 11.2529C18.1446 11.4404 18.25 11.6948 18.25 11.96C18.25 12.2252 18.1446 12.4796 17.9571 12.6671C17.7696 12.8546 17.5152 12.96 17.25 12.96V13Z" fill="white"/>
</svg>
