<svg width="24" height="24" viewBox="0 0 24 24" fill="none" xmlns="http://www.w3.org/2000/svg">
<path d="M17.2105 21.4737V3.94737C17.2105 3.57048 17.0608 3.20903 16.7943 2.94253C16.5278 2.67603 16.1664 2.52631 15.7895 2.52631H4.42105C4.04417 2.52631 3.68272 2.67603 3.41622 2.94253C3.14972 3.20903 3 3.57048 3 3.94737V20.0526C3 20.4295 3.14972 20.791 3.41622 21.0575C3.68272 21.324 4.04417 21.4737 4.42105 21.4737H17.2105ZM17.2105 21.4737H19.5789C19.9558 21.4737 20.3173 21.324 20.5838 21.0575C20.8503 20.791 21 20.4295 21 20.0526V12C21 11.7487 20.9002 11.5078 20.7225 11.3301C20.5449 11.1524 20.3039 11.0526 20.0526 11.0526H18.1579C17.9066 11.0526 17.6657 11.1524 17.488 11.3301C17.3103 11.5078 17.2105 11.7487 17.2105 12V21.4737Z" stroke="white" stroke-width="1.1" stroke-linejoin="round"/>
<path d="M5.8418 6.31543H9.63127M5.8418 9.63122H11.526" stroke="white" stroke-width="1.1" stroke-linecap="round" stroke-linejoin="round"/>
</svg>
