<svg width="24" height="24" viewBox="0 0 24 24" fill="none" xmlns="http://www.w3.org/2000/svg">
<path d="M7.2998 21.9L11.9998 17.6L16.2998 21.9M11.9998 2.39999V4.39999M8.9998 11.2V14M11.9998 9.59999V14M14.9998 7.59999V14M21.1998 4.99999V17C21.1998 17.0788 21.1843 17.1568 21.1541 17.2296C21.124 17.3024 21.0798 17.3685 21.0241 17.4243C20.9684 17.48 20.9022 17.5242 20.8294 17.5543C20.7566 17.5845 20.6786 17.6 20.5998 17.6H3.3998C3.24067 17.6 3.08806 17.5368 2.97554 17.4243C2.86302 17.3117 2.7998 17.1591 2.7998 17V4.99999C2.7998 4.84086 2.86302 4.68825 2.97554 4.57573C3.08806 4.46321 3.24067 4.39999 3.3998 4.39999H20.5998C20.7589 4.39999 20.9115 4.46321 21.0241 4.57573C21.1366 4.68825 21.1998 4.84086 21.1998 4.99999Z" stroke="white" stroke-linecap="round" stroke-linejoin="round"/>
</svg>
