<svg width="24" height="24" viewBox="0 0 24 24" fill="none" xmlns="http://www.w3.org/2000/svg">
<path d="M19.8874 12.5313L21.2434 13.7388C21.4938 13.9478 21.6612 14.2395 21.7151 14.5611C21.769 14.8828 21.706 15.2131 21.5374 15.4923L19.9024 18.2853C19.7756 18.4991 19.5945 18.6756 19.3774 18.7968C19.1579 18.9183 18.9114 18.9828 18.6604 18.9843C18.5048 18.9853 18.3499 18.962 18.2014 18.9153L16.4659 18.3423C16.1619 18.5373 15.8459 18.7118 15.5179 18.8658L15.1534 20.6253C15.086 20.949 14.9058 21.2382 14.6449 21.4413C14.3808 21.6481 14.0533 21.7573 13.7179 21.7503H10.3324C9.99706 21.7573 9.66959 21.6481 9.40545 21.4413C9.14516 21.2379 8.9655 20.9488 8.89845 20.6253L8.53245 18.8658C8.20875 18.7097 7.89468 18.5344 7.59195 18.3408L5.85045 18.9153C5.70195 18.962 5.5471 18.9853 5.39145 18.9843C5.14103 18.9825 4.89506 18.9181 4.67595 18.7968C4.4591 18.676 4.278 18.5001 4.15095 18.2868L2.45745 15.4923C2.28139 15.2106 2.21412 14.8743 2.26824 14.5465C2.32236 14.2188 2.49416 13.922 2.75145 13.7118L4.10595 12.0003V11.4693L2.74995 10.2618C2.49954 10.0529 2.33223 9.76114 2.2783 9.43949C2.22437 9.11784 2.28739 8.78752 2.45595 8.50831L4.14945 5.71531C4.27629 5.50151 4.45741 5.32505 4.67445 5.20381C4.89356 5.08257 5.13953 5.01811 5.38995 5.01631C5.5442 5.00658 5.69902 5.02075 5.84895 5.05831L7.55595 5.65831C7.86095 5.46331 8.17695 5.28881 8.50395 5.13481L8.86995 3.37531C8.937 3.05186 9.11666 2.76271 9.37694 2.55931C9.64109 2.35253 9.96856 2.24337 10.3039 2.25031H13.6609C13.9963 2.24337 14.3238 2.35253 14.5879 2.55931C14.8504 2.76481 15.0304 3.05431 15.0949 3.37531L15.4609 5.13481C15.7859 5.28981 16.0994 5.46481 16.4014 5.65981L18.1444 5.08681C18.3379 5.02388 18.5423 5.00179 18.7447 5.02193C18.9471 5.04207 19.1432 5.104 19.3204 5.20381C19.5379 5.32681 19.7179 5.50381 19.8454 5.71381L21.5374 8.50831C21.7159 8.78764 21.7866 9.12236 21.7363 9.44999C21.6861 9.77761 21.5184 10.0758 21.2644 10.2888L19.8874 11.4618V12.5313Z" stroke="white" stroke-width="1.1"/>
<path d="M15.75 12C15.75 12.9946 15.3549 13.9484 14.6517 14.6517C13.9484 15.3549 12.9946 15.75 12 15.75C11.0054 15.75 10.0516 15.3549 9.34835 14.6517C8.64509 13.9484 8.25 12.9946 8.25 12C8.25 11.0054 8.64509 10.0516 9.34835 9.34835C10.0516 8.64509 11.0054 8.25 12 8.25C12.9946 8.25 13.9484 8.64509 14.6517 9.34835C15.3549 10.0516 15.75 11.0054 15.75 12Z" stroke="white" stroke-width="1.1"/>
</svg>
