<svg width="24" height="24" viewBox="0 0 24 24" fill="none" xmlns="http://www.w3.org/2000/svg">
<path d="M14.3212 3H9.6799L9.14746 5.64845C8.70662 5.84487 8.28743 6.08615 7.8966 6.36845L5.32082 5.502L3.00098 9.498L5.04267 11.2816C4.99337 11.7593 4.99337 12.2407 5.04267 12.7184L3.00098 14.502L5.32165 18.498L7.8966 17.6324C8.28503 17.9122 8.70307 18.1544 9.14746 18.3515L9.6799 21H14.3212L14.8537 18.3515C15.2945 18.1551 15.7137 17.9138 16.1045 17.6315L18.6803 18.498L21.001 14.502L18.9585 12.7184C19.0078 12.2407 19.0078 11.7593 18.9585 11.2816L21.0002 9.498L18.6795 5.502L16.1054 6.36764C15.7145 6.08562 15.2953 5.84461 14.8545 5.64845L14.3212 3ZM12.0006 15.2727C11.1275 15.2727 10.2903 14.9279 9.67296 14.3142C9.05564 13.7004 8.70884 12.868 8.70884 12C8.70884 11.132 9.05564 10.2996 9.67296 9.68583C10.2903 9.07208 11.1275 8.72727 12.0006 8.72727C12.8736 8.72727 13.7108 9.07208 14.3282 9.68583C14.9455 10.2996 15.2923 11.132 15.2923 12C15.2923 12.868 14.9455 13.7004 14.3282 14.3142C13.7108 14.9279 12.8736 15.2727 12.0006 15.2727Z" fill="white"/>
</svg>
