<svg width="24" height="24" viewBox="0 0 24 24" fill="none" xmlns="http://www.w3.org/2000/svg">
<path d="M4.9859 19.181C5.0019 20.421 5.0829 20.943 5.4979 21.415C6.0149 22 6.8469 22 8.5099 22H15.4619C17.1249 22 17.9559 22 18.4719 21.414C18.8889 20.942 18.9699 20.42 18.9859 19.18M11.9889 19.07H4.7569C4.0389 19.07 3.4169 18.485 3.5079 17.773C3.6679 16.517 4.3059 14.999 6.8359 14.066C7.7259 13.738 8.7049 13.454 9.1879 12.638C9.8649 11.492 10.1639 10.238 8.8999 8.088C6.8359 4.02 9.9239 2 12.0109 2C14.0979 2 17.1489 4.15 15.0639 8.09C13.7989 10.222 14.1349 11.493 14.8119 12.639C15.2949 13.455 16.2739 13.739 17.1639 14.067C19.6939 15 20.3329 16.518 20.4919 17.774C20.5819 18.486 19.9609 19.072 19.2429 19.072H12.0109" stroke="white" stroke-width="1.1" stroke-linecap="round" stroke-linejoin="round"/>
</svg>
