<svg width="24" height="24" viewBox="0 0 24 24" fill="none" xmlns="http://www.w3.org/2000/svg">
<path d="M12.5697 3.05741C12.213 2.70061 11.7292 2.50011 11.2246 2.5H4.40249C3.89793 2.5 2.5 2.50001 2.5 2.50001C2.5 2.50001 2.50005 3.89788 2.50005 4.40244V11.2246C2.50016 11.7291 2.70066 12.2129 3.05746 12.5696L11.3369 20.849C11.7692 21.2786 12.4878 22 12.9634 22C13.439 22 14.1577 21.2786 14.59 20.849L20.8491 14.59C21.2787 14.1577 22 13.439 22 12.9634C22 12.4878 21.2787 11.7692 20.8491 11.3368L12.5697 3.05741Z" stroke="white" stroke-linecap="round" stroke-linejoin="round"/>
<path d="M7.25595 9.15853C8.30664 9.15853 9.15839 8.30678 9.15839 7.2561C9.15839 6.20541 8.30664 5.35366 7.25595 5.35366C6.20527 5.35366 5.35352 6.20541 5.35352 7.2561C5.35352 8.30678 6.20527 9.15853 7.25595 9.15853Z" stroke="white" stroke-linecap="round" stroke-linejoin="round"/>
</svg>
