<svg width="24" height="24" viewBox="0 0 24 24" fill="none" xmlns="http://www.w3.org/2000/svg">
<path d="M8 10V7C8 5.93913 8.42143 4.92172 9.17157 4.17157C9.92172 3.42143 10.9391 3 12 3C13.0609 3 14.2499 3.24985 15 4C15.9046 4.90463 16 6 16 6" stroke="white" stroke-linecap="round"/>
<path d="M5 10H19V19C19 19.5304 18.7893 20.0391 18.4142 20.4142C18.0391 20.7893 17.5304 21 17 21H7C6.46957 21 5.96086 20.7893 5.58579 20.4142C5.21071 20.0391 5 19.5304 5 19V10Z" stroke="white" stroke-linejoin="round"/>
<path d="M14.5 15.5H14.51V15.51H14.5V15.5Z" stroke="white" stroke-width="1.5" stroke-linejoin="round"/>
</svg>
