<svg width="24" height="24" viewBox="0 0 24 24" fill="none" xmlns="http://www.w3.org/2000/svg">
<path d="M16.3125 3.375C17.0539 3.37479 17.7729 3.6293 18.349 4.09593C18.9252 4.56255 19.3236 5.21295 19.4774 5.93823C19.6312 6.6635 19.5312 7.41962 19.1941 8.07996C18.857 8.74031 18.3033 9.26479 17.6257 9.56559M18.1604 13.0781C18.7672 13.0781 19.3681 13.1976 19.9287 13.4299C20.4894 13.6621 20.9988 14.0025 21.4278 14.4315C21.8569 14.8606 22.1973 15.37 22.4295 15.9306C22.6617 16.4913 22.7812 17.0922 22.7812 17.699C22.7812 18.72 21.9543 19.5469 20.9333 19.5469M7.6875 3.375C6.94609 3.37479 6.22711 3.6293 5.65095 4.09593C5.0748 4.56255 4.67645 5.21295 4.5226 5.93823C4.36875 6.6635 4.46875 7.41962 4.80585 8.07996C5.14296 8.74031 5.69669 9.26479 6.37434 9.56559M3.06666 19.5469C2.57656 19.5469 2.10654 19.3522 1.75999 19.0056C1.41344 18.6591 1.21875 18.1891 1.21875 17.699C1.21875 17.0922 1.33827 16.4913 1.57049 15.9306C1.80271 15.37 2.14308 14.8606 2.57216 14.4315C3.00125 14.0025 3.51065 13.6621 4.07127 13.4299C4.6319 13.1976 5.23278 13.0781 5.83959 13.0781M15.2344 7.6875C15.2344 8.54531 14.8936 9.36799 14.287 9.97455C13.6805 10.5811 12.8578 10.9219 12 10.9219C11.1422 10.9219 10.3195 10.5811 9.71295 9.97455C9.10639 9.36799 8.76562 8.54531 8.76562 7.6875C8.76562 6.82969 9.10639 6.00701 9.71295 5.40045C10.3195 4.79389 11.1422 4.45313 12 4.45313C12.8578 4.45313 13.6805 4.79389 14.287 5.40045C14.8936 6.00701 15.2344 6.82969 15.2344 7.6875ZM13.8479 14.1562H10.1521C9.54528 14.1562 8.9444 14.2758 8.38377 14.508C7.82315 14.7402 7.31375 15.0806 6.88466 15.5097C6.45558 15.9387 6.11521 16.4481 5.88299 17.0088C5.65077 17.5694 5.53125 18.1703 5.53125 18.7771C5.53125 19.7981 6.35817 20.625 7.37916 20.625H16.6208C17.6418 20.625 18.4688 19.7981 18.4688 18.7771C18.4688 18.1703 18.3492 17.5694 18.117 17.0088C17.8848 16.4481 17.5444 15.9387 17.1153 15.5097C16.6863 15.0806 16.1769 14.7402 15.6162 14.508C15.0556 14.2758 14.4547 14.1562 13.8479 14.1562Z" stroke="white" stroke-linecap="round" stroke-linejoin="round"/>
</svg>
